<?xml version="1.0" standalone="no"?>
<!DOCTYPE svg PUBLIC "-//W3C//DTD SVG 1.0//EN" "http://www.w3.org/TR/2001/REC-SVG-20010904/DTD/svg10.dtd">
<svg xmlns="http://www.w3.org/2000/svg" xmlns:xlink="http://www.w3.org/1999/xlink" id="body_1" width="256" height="90">

<g transform="matrix(0.5 0 0 0.5027933 0 0)">
    <path transform="matrix(1 0 0 1 0 0)"  d="M386.892 41.423C 398.893 41.423 409.985 42.694 423.44 45.421L423.44 45.421L413.852 65.619C 406.397 64.164 413.255 65.424 407.622 64.87901L407.622 64.87901L407.622 67.78901L407.984 79.60501L408.164 94.87901C 408.346 98.69601 408.346 102.515 408.529 106.333L408.529 106.333L408.529 113.97C 408.529 137.971 406.529 149.243 400.529 158.515C 391.802 172.153 376.71 178.88 355.256 178.88C 344.3459 178.88 334.8929 177.244 325.0729 173.425L325.0729 173.425L325.0729 147.607L325.075 147.607C 334.895 152.697 344.7119 155.06 355.075 155.06C 373.438 155.06 381.257 147.607 381.257 129.787L381.257 129.787L381.257 129.242C 375.8029 131.968 370.347 133.06 363.076 133.06C 338.53 133.06 322.891 116.878 322.891 91.24203C 322.891 59.42103 345.9839 41.42203 386.891 41.42203L386.891 41.42203L386.892 41.423zM132.91 43.24L132.91 108.149C 132.91 130.514 131.273 141.24 126.365 150.514C 121.818 159.424 115.817 165.059 103.455 171.242L103.455 171.242L77.454 158.878C 89.818 153.06 95.817 147.971 99.635 140.149C 103.636 132.149 104.91 122.876 104.91 98.513L104.91 98.513L104.91 43.241L132.91 43.241zM466.908 40.876C 494.908 40.876 512 58.514 512 87.05901C 512 116.334 494.183 134.697 465.817 134.697C 437.815 134.697 420.542 117.06 420.542 88.69701C 420.544 59.23901 438.363 40.87701 466.908 40.87701zM186.915 41.241C 201.279 41.241 210.733 45.05801 214.915 52.513C 217.278 56.695 218.005 62.149 218.005 73.787L218.005 73.787L218.005 130.695C 205.458 132.513 189.641 133.787 178.005 133.787C 154.551 133.787 144.003 125.602 144.003 107.422C 144.003 87.784 158.003 78.694 192.369 75.784L192.369 75.784L192.369 69.60201C 192.369 64.51201 189.824 62.695 182.732 62.695C 172.369 62.695 160.732 65.603 149.822 71.241L149.822 71.241L149.822 49.604C 162.188 43.788 174.005 41.242 186.915 41.242zM88.365 0L88.365 129.607C 74.002 132.334 63.455 133.425 52.002 133.425C 17.818 133.425 0 117.97 0 88.333C 0 59.787 18.91 41.243 48.183 41.243C 52.728 41.243 56.183 41.605 60.365 42.696L60.365 42.696L60.365 0L88.365 0zM275.643 41.242C 290.007 41.242 300.371 44.514 306.555 50.878C 312.373 56.877 314.19 63.422 314.19 77.424L314.19 77.424L314.19 132.333L286.189 132.333L286.189 78.515C 286.189 67.788 282.553 63.786 272.553 63.786C 268.735 63.786 265.281 64.15 259.643 65.786L259.643 65.786L259.643 132.333L231.643 132.333L231.643 47.604C 248.188 43.241 261.824 41.242 275.643 41.242zM193.642 94.151C 175.095 95.969 169.095 98.879 169.095 106.151C 169.095 111.605 172.551 114.151 180.187 114.151C 184.369 114.151 188.187 113.788 193.642 112.879L193.642 112.879L193.642 94.151zM466.546 63.423C 455.453 63.423 449.087 72.333 449.087 87.786C 449.089 103.242 455.453 112.151 466.36 112.151C 477.09 112.151 483.454 103.241 483.454 87.786C 483.454 72.514 477.271 63.423 466.546 63.423zM50.91098 63.786C 36.72898 63.786 28.54598 72.514 28.54598 87.786C 28.54598 102.696 36.36598 110.878 50.72898 110.878C 53.81898 110.878 56.36498 110.696 60.36498 110.152L60.36498 110.152L60.36498 65.24C 57.09198 64.15 54.36498 63.786 50.91098 63.786zM361.621 67.966C 354.896 71.786 351.439 78.696 351.439 88.513C 351.439 102.515 358.35 110.514 370.713 110.514C 374.5309 110.514 377.623 109.786 381.258 108.696L381.258 108.696L381.258 99.061C 381.258 95.78799 381.078 92.14999 381.078 88.333L381.078 88.333L380.897 75.424L380.714 66.15099L380.714 63.96799L377.804 63.96799C 372.351 63.786 365.987 65.24 361.6219 67.967zM132.91 0.15L132.91 28.878L104.91 28.878L104.91 0.149L132.91 0.149z" stroke="none" fill="#092E20" fill-rule="nonzero" />
    <path transform="matrix(1 0 0 1 0 0)"  d="M0 0L512 0L512 179L0 179L0 0z" stroke="none" fill="none" />
</g>
</svg>