<?xml version="1.0" encoding="UTF-8"?>
<svg xmlns="http://www.w3.org/2000/svg" xmlns:xlink="http://www.w3.org/1999/xlink" width="1pt" height="1pt" viewBox="0 0 1 1" version="1.1">
<g id="surface1">
<path style=" stroke:none;fill-rule:nonzero;fill:rgb(3.529412%,18.039216%,12.54902%);fill-opacity:1;" d="M 0.0546875 0 L 0.445312 0 C 0.476562 0 0.5 0.0234375 0.5 0.0546875 L 0.5 0.445312 C 0.5 0.476562 0.476562 0.5 0.445312 0.5 L 0.0546875 0.5 C 0.0234375 0.5 0 0.476562 0 0.445312 L 0 0.0546875 C 0 0.0234375 0.0234375 0 0.0546875 0 Z M 0.0546875 0 "/>
<path style=" stroke:none;fill-rule:nonzero;fill:rgb(100%,100%,99.215686%);fill-opacity:1;" d="M 0.363281 0.183594 L 0.363281 0.3125 C 0.363281 0.359375 0.359375 0.378906 0.351562 0.398438 C 0.34375 0.414062 0.328125 0.425781 0.304688 0.4375 L 0.253906 0.414062 C 0.277344 0.402344 0.289062 0.394531 0.296875 0.378906 C 0.304688 0.359375 0.308594 0.34375 0.308594 0.292969 L 0.308594 0.183594 Z M 0.273438 0.0976562 L 0.273438 0.355469 C 0.246094 0.363281 0.226562 0.363281 0.203125 0.363281 C 0.132812 0.363281 0.0976562 0.332031 0.0976562 0.273438 C 0.0976562 0.21875 0.136719 0.179688 0.195312 0.179688 C 0.203125 0.179688 0.210938 0.179688 0.21875 0.183594 L 0.21875 0.0976562 Z M 0.199219 0.226562 C 0.171875 0.226562 0.15625 0.242188 0.15625 0.273438 C 0.15625 0.300781 0.171875 0.320312 0.199219 0.320312 C 0.207031 0.320312 0.210938 0.320312 0.21875 0.316406 L 0.21875 0.226562 C 0.214844 0.226562 0.207031 0.226562 0.199219 0.226562 Z M 0.363281 0.0976562 L 0.363281 0.15625 L 0.308594 0.15625 L 0.308594 0.0976562 Z M 0.363281 0.0976562 "/>
</g>
</svg>
